<svg xmlns="http://www.w3.org/2000/svg" viewBox="0 0 100 100">
  <path fill="#2444e8" d="M96.00 50.00 L95.47 51.59 L93.92 53.07 L91.47 54.36 L88.32 55.39 L84.72 56.12 L80.95 56.58 L77.29 56.81 L74.03 56.89 L71.38 56.95 L69.53 57.11 L68.57 57.50 L68.53 58.25 L69.34 59.43 L70.88 61.10 L72.95 63.25 L75.32 65.82 L77.73 68.71 L79.95 71.76 L81.73 74.79 L82.91 77.61 L83.35 80.03 L83.00 81.87 L81.87 83.00 L80.03 83.35 L77.61 82.91 L74.79 81.73 L71.76 79.95 L68.71 77.73 L65.82 75.32 L63.25 72.95 L61.10 70.88 L59.43 69.34 L58.25 68.53 L57.50 68.57 L57.11 69.53 L56.95 71.38 L56.89 74.03 L56.81 77.29 L56.58 80.95 L56.12 84.72 L55.39 88.32 L54.36 91.47 L53.07 93.92 L51.59 95.47 L50.00 96.00 L48.41 95.47 L46.93 93.92 L45.64 91.47 L44.61 88.32 L43.88 84.72 L43.42 80.95 L43.19 77.29 L43.11 74.03 L43.05 71.38 L42.89 69.53 L42.50 68.57 L41.75 68.53 L40.57 69.34 L38.90 70.88 L36.75 72.95 L34.18 75.32 L31.29 77.73 L28.24 79.95 L25.21 81.73 L22.39 82.91 L19.97 83.35 L18.13 83.00 L17.00 81.87 L16.65 80.03 L17.09 77.61 L18.27 74.79 L20.05 71.76 L22.27 68.71 L24.68 65.82 L27.05 63.25 L29.12 61.10 L30.66 59.43 L31.47 58.25 L31.43 57.50 L30.47 57.11 L28.62 56.95 L25.97 56.89 L22.71 56.81 L19.05 56.58 L15.28 56.12 L11.68 55.39 L8.53 54.36 L6.08 53.07 L4.53 51.59 L4.00 50.00 L4.53 48.41 L6.08 46.93 L8.53 45.64 L11.68 44.61 L15.28 43.88 L19.05 43.42 L22.71 43.19 L25.97 43.11 L28.62 43.05 L30.47 42.89 L31.43 42.50 L31.47 41.75 L30.66 40.57 L29.12 38.90 L27.05 36.75 L24.68 34.18 L22.27 31.29 L20.05 28.24 L18.27 25.21 L17.09 22.39 L16.65 19.97 L17.00 18.13 L18.13 17.00 L19.97 16.65 L22.39 17.09 L25.21 18.27 L28.24 20.05 L31.29 22.27 L34.18 24.68 L36.75 27.05 L38.90 29.12 L40.57 30.66 L41.75 31.47 L42.50 31.43 L42.89 30.47 L43.05 28.62 L43.11 25.97 L43.19 22.71 L43.42 19.05 L43.88 15.28 L44.61 11.68 L45.64 8.53 L46.93 6.08 L48.41 4.53 L50.00 4.00 L51.59 4.53 L53.07 6.08 L54.36 8.53 L55.39 11.68 L56.12 15.28 L56.58 19.05 L56.81 22.71 L56.89 25.97 L56.95 28.62 L57.11 30.47 L57.50 31.43 L58.25 31.47 L59.43 30.66 L61.10 29.12 L63.25 27.05 L65.82 24.68 L68.71 22.27 L71.76 20.05 L74.79 18.27 L77.61 17.09 L80.03 16.65 L81.87 17.00 L83.00 18.13 L83.35 19.97 L82.91 22.39 L81.73 25.21 L79.95 28.24 L77.73 31.29 L75.32 34.18 L72.95 36.75 L70.88 38.90 L69.34 40.57 L68.53 41.75 L68.57 42.50 L69.53 42.89 L71.38 43.05 L74.03 43.11 L77.29 43.19 L80.95 43.42 L84.72 43.88 L88.32 44.61 L91.47 45.64 L93.92 46.93 L95.47 48.41 L96.00 50.00 Z"/>
  <circle cx="50" cy="50" r="12" fill="#ffffff"/>
</svg>
